<svg width="157" height="32" viewBox="0 0 157 32" fill="none" xmlns="http://www.w3.org/2000/svg">
<g id="Rate stars">
<path id="Shape" fill-rule="evenodd" clip-rule="evenodd" d="M16.3273 23.2922L23.9456 28L21.9301 19.1213L28.6547 13.1503L19.7901 12.3709L16.3273 4L12.8646 12.3709L4 13.1503L10.7246 19.1213L8.70904 28L16.3273 23.2922Z" fill="#E3C458" stroke="#E3C458" stroke-width="3"/>
<path id="Shape_2" fill-rule="evenodd" clip-rule="evenodd" d="M47.4138 23.2922L55.0321 28L53.0165 19.1213L59.7411 13.1503L50.8765 12.3709L47.4138 4L43.951 12.3709L35.0864 13.1503L41.811 19.1213L39.7955 28L47.4138 23.2922Z" fill="#E3C458" stroke="#E3C458" stroke-width="3"/>
<path id="Shape_3" fill-rule="evenodd" clip-rule="evenodd" d="M78.5002 23.2922L86.1185 28L84.103 19.1213L90.8275 13.1503L81.9629 12.3709L78.5002 4L75.0374 12.3709L66.1729 13.1503L72.8974 19.1213L70.8819 28L78.5002 23.2922Z" fill="#E3C458" stroke="#E3C458" stroke-width="3"/>
<path id="Shape_4" fill-rule="evenodd" clip-rule="evenodd" d="M109.586 23.2922L117.204 28L115.189 19.1213L121.913 13.1503L113.049 12.3709L109.586 4L106.123 12.3709L97.2588 13.1503L103.983 19.1213L101.968 28L109.586 23.2922Z" fill="#E3C458" stroke="#E3C458" stroke-width="3"/>
<path id="Shape_5" fill-rule="evenodd" clip-rule="evenodd" d="M140.673 23.2922L148.291 28L146.275 19.1213L153 13.1503L144.135 12.3709L140.673 4L137.21 12.3709L128.345 13.1503L135.07 19.1213L133.054 28L140.673 23.2922Z" stroke="#E3C458" stroke-width="3"/>
</g>
</svg>
