<svg width="13" height="14" viewBox="0 0 13 14" fill="none" xmlns="http://www.w3.org/2000/svg">
<path id="Vector" d="M10.8334 9.69015C10.5416 9.69004 10.2529 9.74876 9.98454 9.86277C9.71621 9.97678 9.4739 10.1437 9.27224 10.3535L4.26241 7.5497C4.35946 7.18721 4.35946 6.80578 4.26241 6.44329L9.27224 3.63953C9.63705 4.01574 10.1272 4.24675 10.651 4.28926C11.1747 4.33178 11.6961 4.18289 12.1174 3.87049C12.5387 3.55808 12.8311 3.1036 12.9397 2.59219C13.0483 2.08077 12.9657 1.54751 12.7074 1.09231C12.4491 0.637106 12.0328 0.291193 11.5366 0.119375C11.0403 -0.0524436 10.498 -0.0383788 10.0114 0.158934C9.52481 0.356247 9.12722 0.72327 8.89313 1.19124C8.65904 1.65922 8.60452 2.19603 8.73978 2.70112L3.72995 5.50488C3.4307 5.19452 3.04493 4.98031 2.62228 4.88982C2.19963 4.79933 1.75943 4.83669 1.35831 4.9971C0.957179 5.15751 0.613477 5.43363 0.371414 5.78995C0.129352 6.14626 0 6.56646 0 6.99649C0 7.42653 0.129352 7.84673 0.371414 8.20304C0.613477 8.55936 0.957179 8.83548 1.35831 8.99589C1.75943 9.1563 2.19963 9.19366 2.62228 9.10317C3.04493 9.01268 3.4307 8.79847 3.72995 8.48811L8.73978 11.2919C8.62362 11.7268 8.6473 12.1871 8.80749 12.608C8.96768 13.0289 9.25634 13.3894 9.63297 13.6388C10.0096 13.8882 10.4553 14.0141 10.9075 13.9987C11.3597 13.9834 11.7957 13.8276 12.1544 13.5532C12.513 13.2788 12.7763 12.8996 12.9073 12.4688C13.0382 12.038 13.0303 11.5773 12.8846 11.1512C12.7389 10.7251 12.4627 10.3551 12.0949 10.093C11.727 9.83099 11.2859 9.69011 10.8334 9.69015Z" fill="#F2F1F8"/>
</svg>
