<svg width="28" height="28" viewBox="0 0 28 28" fill="none" xmlns="http://www.w3.org/2000/svg">
<g id="Facebook">
<path id="Facebook_2" fill-rule="evenodd" clip-rule="evenodd" d="M14.4768 27.0732H1.51043C0.684905 27.0732 0.0161133 26.404 0.0161133 25.5789V1.49431C0.0161133 0.668792 0.684905 0 1.51043 0H25.5952C26.4203 0 27.0893 0.668792 27.0893 1.49431V25.5789C27.0893 26.4042 26.4203 27.0732 25.5952 27.0732H18.6962V16.5889H22.2153L22.7421 12.5029H18.6962V9.8944C18.6962 8.71143 19.0247 7.90537 20.721 7.90537L22.8845 7.90452V4.25006C22.5103 4.20036 21.226 4.08911 19.7317 4.08911C16.6122 4.08911 14.4766 5.99332 14.4766 9.48999V12.5032H10.9486V16.5891H14.4768V27.0732Z" fill="#8CC5B2"/>
</g>
</svg>
