<svg width="28" height="27" viewBox="0 0 28 27" fill="none" xmlns="http://www.w3.org/2000/svg">
<g id="Instagram">
<path id="Instagram_2" fill-rule="evenodd" clip-rule="evenodd" d="M23.1972 6.29374C23.1972 7.18854 22.4718 7.91374 21.5772 7.91374C20.6826 7.91374 19.9572 7.18854 19.9572 6.29374C19.9572 5.39895 20.6826 4.67374 21.5772 4.67374C22.472 4.67374 23.1972 5.39895 23.1972 6.29374ZM14.371 17.9999C11.8857 17.9999 9.87104 15.9853 9.87104 13.5C9.87104 11.0147 11.8857 9.00007 14.371 9.00007C16.8562 9.00007 18.8709 11.0147 18.8709 13.5C18.8709 15.9853 16.8562 17.9999 14.371 17.9999ZM14.371 6.56754C10.5422 6.56754 7.43851 9.67127 7.43851 13.5C7.43851 17.3287 10.5422 20.4325 14.371 20.4325C18.1997 20.4325 21.3034 17.3287 21.3034 13.5C21.3034 9.67127 18.1997 6.56754 14.371 6.56754ZM14.371 2.43253C17.9757 2.43253 18.4026 2.44624 19.826 2.51121C21.1423 2.57133 21.8571 2.79113 22.3328 2.97612C22.9629 3.22102 23.4126 3.51359 23.8851 3.98609C24.3576 4.45837 24.6502 4.90809 24.8951 5.53837C25.0798 6.01404 25.2999 6.72891 25.36 8.04516C25.4249 9.46877 25.4387 9.89571 25.4387 13.5004C25.4387 17.1051 25.4249 17.5321 25.36 18.9555C25.2999 20.2717 25.0801 20.9866 24.8951 21.4623C24.6502 22.0923 24.3576 22.542 23.8851 23.0145C23.4128 23.487 22.9631 23.7796 22.3328 24.0245C21.8571 24.2093 21.1423 24.4293 19.826 24.4894C18.4026 24.5544 17.9757 24.5681 14.371 24.5681C10.766 24.5681 10.3391 24.5544 8.91571 24.4894C7.59946 24.4293 6.88459 24.2095 6.40892 24.0245C5.77885 23.7796 5.32914 23.487 4.85664 23.0145C4.38435 22.5423 4.09157 22.0925 3.84667 21.4623C3.66189 20.9866 3.44188 20.2717 3.38176 18.9555C3.31679 17.5319 3.30308 17.1049 3.30308 13.5004C3.30308 9.89571 3.31679 9.46877 3.38176 8.04516C3.44188 6.72891 3.66167 6.01404 3.84667 5.53837C4.09157 4.9083 4.38414 4.45859 4.85664 3.98609C5.32893 3.51359 5.77864 3.22102 6.40892 2.97612C6.88459 2.79134 7.59946 2.57133 8.91571 2.51121C10.3393 2.44624 10.7663 2.43253 14.371 2.43253ZM14.371 0C10.7047 0 10.2448 0.0156094 8.80496 0.0812109C7.36806 0.146812 6.38657 0.375047 5.52805 0.70875C4.64021 1.05363 3.88738 1.51537 3.13686 2.26589C2.38635 3.01641 1.9246 3.76924 1.57972 4.65708C1.24602 5.5158 1.01778 6.49709 0.952183 7.93399C0.886581 9.37385 0.870972 9.8337 0.870972 13.5C0.870972 17.1663 0.886581 17.6261 0.952183 19.066C1.01778 20.5029 1.24602 21.4842 1.57972 22.3429C1.9246 23.2308 2.38635 23.9836 3.13686 24.7341C3.88738 25.4846 4.64021 25.9462 5.52805 26.2913C6.38678 26.625 7.36806 26.8532 8.80496 26.9188C10.2448 26.9844 10.7047 27 14.371 27C18.0373 27 18.4971 26.9844 19.937 26.9188C21.3739 26.8532 22.3552 26.625 23.2139 26.2913C24.1017 25.9462 24.8546 25.4846 25.6051 24.7341C26.3556 23.9836 26.8171 23.2308 27.1622 22.3429C27.4959 21.4842 27.7242 20.5029 27.7898 19.066C27.8554 17.6261 27.871 17.1663 27.871 13.5C27.871 9.8337 27.8554 9.37385 27.7898 7.93399C27.7242 6.49709 27.4959 5.5158 27.1622 4.65708C26.8171 3.76924 26.3556 3.01641 25.6051 2.26589C24.8546 1.51537 24.1017 1.05384 23.2139 0.70875C22.3552 0.375047 21.3739 0.146812 19.937 0.0812109C18.4971 0.0156094 18.0373 0 14.371 0Z" fill="#8CC5B2"/>
</g>
</svg>
