<svg width="28" height="27" viewBox="0 0 28 27" fill="none" xmlns="http://www.w3.org/2000/svg">
<g id="Telegram">
<path id="Telegram_2" d="M13.5894 0C6.13351 0 0.0893555 6.04415 0.0893555 13.5C0.0893555 20.9558 6.13351 27 13.5894 27C21.0452 27 27.0894 20.9558 27.0894 13.5C27.0894 6.04415 21.0452 0 13.5894 0ZM20.6061 8.53959L18.2084 19.9863C18.1794 20.1248 18.1161 20.2537 18.0242 20.3613C17.9324 20.4689 17.815 20.5517 17.6828 20.602C17.5506 20.6524 17.4079 20.6687 17.2677 20.6495C17.1276 20.6304 16.9945 20.5763 16.8807 20.4922L13.3931 17.9156L11.2801 19.9089C11.2525 19.935 11.2199 19.9553 11.1843 19.9687C11.1487 19.9821 11.1108 19.9882 11.0728 19.9868C11.0348 19.9853 10.9975 19.9763 10.963 19.9603C10.9285 19.9443 10.8976 19.9215 10.872 19.8934L10.8265 19.8435L11.1937 16.2905L17.811 10.2445C17.8437 10.2146 17.8641 10.1736 17.868 10.1295C17.872 10.0854 17.8593 10.0414 17.8324 10.0062C17.8055 9.97098 17.7664 9.94713 17.7228 9.93934C17.6792 9.93156 17.6343 9.94039 17.5969 9.96411L9.13409 15.3203L5.48936 14.0963C5.39244 14.0637 5.30798 14.002 5.24755 13.9195C5.18712 13.837 5.15369 13.7379 5.15184 13.6357C5.14999 13.5335 5.17982 13.4332 5.23723 13.3486C5.29463 13.264 5.37681 13.1992 5.47248 13.1632L19.7329 7.79119C19.8429 7.74979 19.962 7.73871 20.0778 7.75909C20.1935 7.77948 20.3017 7.83059 20.3909 7.90707C20.4802 7.98356 20.5472 8.08261 20.5851 8.19388C20.6229 8.30515 20.6302 8.42455 20.6061 8.53959Z" fill="#8CC5B2"/>
</g>
</svg>
