<svg width="27" height="27" viewBox="0 0 27 27" fill="none" xmlns="http://www.w3.org/2000/svg">
<g id="Whatsapp">
<path id="Vector" fill-rule="evenodd" clip-rule="evenodd" d="M22.9559 3.92371C20.4298 1.39478 17.0706 0.00146636 13.4916 0C6.11712 0 0.115082 6.00155 0.112204 13.3783C0.111172 15.7364 0.727261 18.038 1.89812 20.067L0 27L7.09257 25.1395C9.04674 26.2054 11.247 26.7672 13.4862 26.768H13.4917C13.4912 26.768 13.4921 26.768 13.4917 26.768C20.8653 26.768 26.8679 20.7658 26.871 13.389C26.8723 9.81398 25.4819 6.45253 22.9559 3.92371ZM13.4916 24.5084H13.4871C11.4918 24.5077 9.53461 23.9715 7.82722 22.9584L7.4212 22.7174L3.21236 23.8214L4.33581 19.7179L4.07138 19.2971C2.95825 17.5266 2.37035 15.4802 2.37121 13.379C2.3736 7.24779 7.36227 2.25966 13.4961 2.25966C16.4663 2.26059 19.2584 3.41885 21.358 5.5208C23.4575 7.62274 24.6131 10.4167 24.6119 13.388C24.6094 19.5198 19.6209 24.5084 13.4916 24.5084Z" fill="#8CC5B2"/>
<path id="Vector_2" fill-rule="evenodd" clip-rule="evenodd" d="M19.5913 16.1799C19.257 16.0126 17.6134 15.204 17.307 15.0923C17.0006 14.9808 16.7777 14.925 16.5548 15.2597C16.332 15.5943 15.6913 16.3473 15.4963 16.5705C15.3013 16.7935 15.1062 16.8215 14.772 16.6541C14.4377 16.4867 13.3606 16.1338 12.0837 14.9948C11.0898 14.1083 10.4189 13.0137 10.2239 12.6789C10.0289 12.3443 10.2031 12.1634 10.3705 11.9967C10.5209 11.8468 10.7048 11.6062 10.872 11.411C11.0391 11.2159 11.0948 11.0763 11.2063 10.8533C11.3177 10.6302 11.262 10.4349 11.1784 10.2677C11.0948 10.1003 10.4263 8.45487 10.1477 7.7854C9.87627 7.13363 9.60071 7.22193 9.39547 7.21156C9.20077 7.20184 8.97761 7.19983 8.75478 7.19983C8.53194 7.19983 8.1697 7.28352 7.86334 7.61812C7.55692 7.95283 6.69324 8.76167 6.69324 10.407C6.69324 12.0525 7.89114 13.6422 8.05831 13.8652C8.22542 14.0884 10.4156 17.465 13.7691 18.913C14.5667 19.2575 15.1894 19.4632 15.6749 19.6172C16.4758 19.8717 17.2045 19.8357 17.7806 19.7497C18.4229 19.6537 19.7585 18.941 20.037 18.1602C20.3156 17.3792 20.3156 16.7098 20.232 16.5704C20.1485 16.431 19.9256 16.3473 19.5913 16.1799Z" fill="#8CC5B2"/>
</g>
</svg>
