<svg width="49" height="48" viewBox="0 0 49 48" fill="none" xmlns="http://www.w3.org/2000/svg">
<g id="Flecha carrusel" filter="url(#filter0_d_17_32)">
<circle id="Ellipse 24" cx="20" cy="20" r="20" fill="#F2F1F8" fill-opacity="0.8"/>
<path id="Arrow 1" d="M11.4286 19.3175C10.8763 19.3175 10.4286 19.7652 10.4286 20.3175C10.4286 20.8697 10.8763 21.3175 11.4286 21.3175V19.3175ZM29.2786 21.0246C29.6691 20.634 29.6691 20.0009 29.2786 19.6104L22.9146 13.2464C22.5241 12.8559 21.8909 12.8559 21.5004 13.2464C21.1099 13.6369 21.1099 14.2701 21.5004 14.6606L27.1572 20.3175L21.5004 25.9743C21.1099 26.3648 21.1099 26.998 21.5004 27.3885C21.8909 27.7791 22.5241 27.7791 22.9146 27.3885L29.2786 21.0246ZM11.4286 21.3175H28.5714V19.3175H11.4286V21.3175Z" fill="#18171B"/>
</g>
<defs>
<filter id="filter0_d_17_32" x="0" y="0" width="49" height="48" filterUnits="userSpaceOnUse" color-interpolation-filters="sRGB">
<feFlood flood-opacity="0" result="BackgroundImageFix"/>
<feColorMatrix in="SourceAlpha" type="matrix" values="0 0 0 0 0 0 0 0 0 0 0 0 0 0 0 0 0 0 127 0" result="hardAlpha"/>
<feOffset dx="5" dy="4"/>
<feGaussianBlur stdDeviation="2"/>
<feComposite in2="hardAlpha" operator="out"/>
<feColorMatrix type="matrix" values="0 0 0 0 0 0 0 0 0 0 0 0 0 0 0 0 0 0 0.51 0"/>
<feBlend mode="normal" in2="BackgroundImageFix" result="effect1_dropShadow_17_32"/>
<feBlend mode="normal" in="SourceGraphic" in2="effect1_dropShadow_17_32" result="shape"/>
</filter>
</defs>
</svg>
