<svg width="15" height="15" viewBox="0 0 15 15" fill="none" xmlns="http://www.w3.org/2000/svg">
<g id="Arrow">
<path id="Vector" d="M7.61721 2.8418C7.55721 2.8418 7.49724 2.86468 7.45148 2.91044C7.40572 2.9562 7.38283 3.01617 7.38283 3.07617C7.38283 3.13617 7.40572 3.19614 7.45148 3.2419L11.7096 7.5L7.45148 11.7581C7.35992 11.8496 7.35992 11.998 7.45148 12.0895C7.543 12.1811 7.69139 12.1811 7.78294 12.0895L12.2068 7.6657C12.2525 7.61994 12.2754 7.55997 12.2754 7.49997C12.2754 7.43997 12.2525 7.38 12.2068 7.33424L7.78294 2.91041C7.73718 2.86468 7.67721 2.8418 7.61721 2.8418Z" fill="#F2F1F8"/>
<path id="Vector_2" d="M2.95901 2.8418C2.89904 2.8418 2.83904 2.86468 2.79327 2.91044C2.74751 2.9562 2.72463 3.01617 2.72463 3.07617C2.72463 3.13617 2.74751 3.19614 2.79327 3.2419L7.05137 7.5L2.79327 11.7581C2.70172 11.8496 2.70172 11.998 2.79327 12.0895C2.8848 12.1811 3.03319 12.1811 3.12471 12.0895L7.54854 7.6657C7.5943 7.61994 7.61718 7.55997 7.61718 7.49997C7.61718 7.43997 7.5943 7.38 7.54854 7.33424L3.12471 2.91041C3.07898 2.86468 3.01898 2.8418 2.95901 2.8418Z" fill="#F2F1F8"/>
</g>
</svg>
